<?xml version="1.0" standalone="no"?>
<!DOCTYPE svg PUBLIC "-//W3C//DTD SVG 20010904//EN"
 "http://www.w3.org/TR/2001/REC-SVG-20010904/DTD/svg10.dtd">
<svg version="1.0" xmlns="http://www.w3.org/2000/svg"
 width="512.000000pt" height="512.000000pt" viewBox="0 0 512.000000 512.000000"
 preserveAspectRatio="xMidYMid meet">
<metadata>
Created by potrace 1.14, written by Peter Selinger 2001-2017
</metadata>
<g transform="translate(0.000000,512.000000) scale(0.100000,-0.100000)"
fill="#000000" stroke="none">
<path d="M3087 4943 c-33 -9 -59 -37 -82 -88 -29 -65 -95 -145 -118 -145 -10
0 -26 4 -35 8 -25 13 -93 -5 -123 -31 -79 -69 -142 -210 -180 -406 -23 -116
-22 -135 5 -261 14 -61 83 -176 144 -237 35 -34 68 -63 72 -63 5 0 15 -6 22
-12 73 -70 314 -94 396 -40 21 13 52 17 147 19 66 1 138 4 160 7 30 4 66 -4
145 -31 97 -33 110 -40 167 -98 53 -53 63 -69 66 -103 l3 -40 -37 19 c-100 50
-226 70 -305 47 -57 -17 -137 -71 -174 -117 -18 -22 -42 -43 -54 -47 -12 -3
-45 -24 -74 -46 l-54 -40 -56 30 c-116 60 -334 123 -512 147 -86 11 -328 12
-390 1 -14 -3 -47 -7 -74 -11 -28 -3 -53 -8 -56 -10 -4 -2 -20 -7 -37 -9 -196
-35 -465 -162 -648 -307 -353 -280 -547 -627 -620 -1109 -7 -45 -6 -275 1
-361 5 -61 56 -304 64 -304 1 0 3 -10 6 -22 8 -47 76 -200 129 -293 159 -281
409 -520 694 -664 132 -66 321 -128 456 -150 109 -17 155 -21 280 -21 149 0
220 7 325 31 36 9 75 18 88 20 53 11 234 75 293 104 231 116 413 259 560 440
55 67 75 93 131 179 39 60 129 252 152 326 81 259 105 459 83 690 -7 69 -10
90 -21 150 -6 31 3 40 124 132 95 72 208 176 226 209 36 65 50 153 37 227 -25
133 -34 160 -91 269 -42 81 -44 90 -32 115 7 16 14 33 16 38 1 6 9 30 18 55
24 70 47 190 39 203 -4 7 -8 62 -9 122 -1 61 -4 117 -6 125 -3 8 -8 29 -13 45
-11 43 -51 119 -70 135 -9 8 -27 35 -40 60 -35 70 -170 182 -250 210 -22 7
-56 26 -75 41 -47 37 -151 71 -230 75 -36 1 -66 4 -67 5 -4 2 -20 6 -34 8 -10
1 -8 33 10 109 16 76 -4 201 -49 298 -35 75 -134 198 -177 219 -17 8 -43 15
-57 15 -21 0 -27 7 -35 38 -15 55 -57 91 -111 96 -25 3 -53 2 -63 -1z"/>
</g>
</svg>
