<?xml version="1.0" standalone="no"?>
<!DOCTYPE svg PUBLIC "-//W3C//DTD SVG 20010904//EN"
 "http://www.w3.org/TR/2001/REC-SVG-20010904/DTD/svg10.dtd">
<svg version="1.0" xmlns="http://www.w3.org/2000/svg"
 width="512.000000pt" height="512.000000pt" viewBox="0 0 512.000000 512.000000"
 preserveAspectRatio="xMidYMid meet">
<metadata>
Created by potrace 1.14, written by Peter Selinger 2001-2017
</metadata>
<g transform="translate(0.000000,512.000000) scale(0.100000,-0.100000)"
fill="#000000" stroke="none">
<path d="M2430 4894 c-19 -2 -78 -9 -130 -15 -407 -45 -846 -231 -1185 -499
-103 -81 -284 -262 -365 -365 -268 -339 -441 -746 -501 -1185 -20 -141 -17
-477 5 -625 51 -345 177 -675 364 -960 363 -555 936 -927 1602 -1041 147 -25
504 -30 660 -10 1008 133 1806 859 2019 1841 49 222 65 535 40 763 -35 330
-154 677 -331 970 -170 282 -438 557 -723 744 -284 187 -620 314 -955 363
-110 15 -426 28 -500 19z m439 -815 c102 -16 192 -38 236 -56 68 -27 166 -77
177 -90 6 -7 16 -13 22 -13 18 0 148 -129 187 -185 117 -169 171 -404 138
-604 -46 -286 -173 -459 -424 -576 -189 -88 -298 -105 -690 -105 l-295 0 0
-755 0 -755 -260 0 -260 0 0 1575 0 1575 551 0 c348 0 576 -4 618 -11z"/>
<path d="M2220 3271 l0 -401 233 1 c363 0 454 18 548 106 58 54 86 111 99 203
25 174 -42 344 -166 421 -96 59 -117 62 -426 67 l-288 4 0 -401z"/>
</g>
</svg>
